HIERARCHY
ROOT Hips
{
	OFFSET 0.000000 0.000000 0.000000
	CHANNELS 6 Xposition Yposition Zposition Zrotation Yrotation Xrotation 
	JOINT LHipJoint
	{
		OFFSET 0.000000 0.000000 0.000000
		CHANNELS 3 Zrotation Yrotation Xrotation
		JOINT LeftUpLeg
		{
			OFFSET 1.363060 -1.794630 0.839290
			CHANNELS 3 Zrotation Yrotation Xrotation
			JOINT LeftLeg
			{
				OFFSET 2.448110 -6.726130 0.000000
				CHANNELS 3 Zrotation Yrotation Xrotation
				JOINT LeftFoot
				{
					OFFSET 2.562200 -7.039590 0.000000
					CHANNELS 3 Zrotation Yrotation Xrotation
					JOINT LeftToeBase
					{
						OFFSET 0.157640 -0.433110 2.322550
						CHANNELS 3 Zrotation Yrotation Xrotation
						End Site
						{
							OFFSET 0.000000 0.000000 0.000000
						}
					}
				}
			}
		}
	}
	JOINT RHipJoint
	{
		OFFSET 0.000000 0.000000 0.000000
		CHANNELS 3 Zrotation Yrotation Xrotation
		JOINT RightUpLeg
		{
			OFFSET -1.305520 -1.794630 0.839290
			CHANNELS 3 Zrotation Yrotation Xrotation
			JOINT RightLeg
			{
				OFFSET -2.542530 -6.985550 0.000000
				CHANNELS 3 Zrotation Yrotation Xrotation
				JOINT RightFoot
				{
					OFFSET -2.568260 -7.056230 0.000000
					CHANNELS 3 Zrotation Yrotation Xrotation
					JOINT RightToeBase
					{
						OFFSET -0.164730 -0.452590 2.363150
						CHANNELS 3 Zrotation Yrotation Xrotation
						End Site
						{
							OFFSET 0.000000 0.000000 0.000000
						}
					}
				}
			}
		}
	}
	JOINT LowerBack
	{
		OFFSET 0.000000 0.000000 0.000000
		CHANNELS 3 Zrotation Yrotation Xrotation
		JOINT Spine
		{
			OFFSET 0.028270 2.035590 -0.193380
			CHANNELS 3 Zrotation Yrotation Xrotation
			JOINT Spine1
			{
				OFFSET 0.056720 2.048850 -0.042750
				CHANNELS 3 Zrotation Yrotation Xrotation
				JOINT Neck
				{
					OFFSET 0.000000 0.000000 0.000000
					CHANNELS 3 Zrotation Yrotation Xrotation
					JOINT Neck1
					{
						OFFSET -0.054170 1.746240 0.172020
						CHANNELS 3 Zrotation Yrotation Xrotation
						JOINT Head
						{
							OFFSET 0.104070 1.761360 -0.123970
							CHANNELS 3 Zrotation Yrotation Xrotation
							End Site
							{
								OFFSET 0.000000 0.000000 0.000000
							}
						}
					}
				}
				JOINT LeftShoulder
				{
					OFFSET 0.000000 0.000000 0.000000
					CHANNELS 3 Zrotation Yrotation Xrotation
					JOINT LeftArm
					{
						OFFSET 3.362410 1.200890 -0.311210
						CHANNELS 3 Zrotation Yrotation Xrotation
						JOINT LeftForeArm
						{
							OFFSET 4.983000 -0.000000 -0.000000
							CHANNELS 3 Zrotation Yrotation Xrotation
							JOINT LeftHand
							{
								OFFSET 3.483560 -0.000000 -0.000000
								CHANNELS 3 Zrotation Yrotation Xrotation
								JOINT LeftFingerBase
								{
									OFFSET 0.000000 0.000000 0.000000
									CHANNELS 3 Zrotation Yrotation Xrotation
									JOINT LeftHandIndex1
									{
										OFFSET 0.715260 -0.000000 -0.000000
										CHANNELS 3 Zrotation Yrotation Xrotation
										End Site
										{
											OFFSET 0.000000 0.000000 0.000000
										}
									}
								}
								JOINT LThumb
								{
									OFFSET 0.000000 0.000000 0.000000
									CHANNELS 3 Zrotation Yrotation Xrotation
									End Site
									{
										OFFSET 0.000000 0.000000 0.000000
									}
								}
							}
						}
					}
				}
				JOINT RightShoulder
				{
					OFFSET 0.000000 0.000000 0.000000
					CHANNELS 3 Zrotation Yrotation Xrotation
					JOINT RightArm
					{
						OFFSET -3.136600 1.374050 -0.404650
						CHANNELS 3 Zrotation Yrotation Xrotation
						JOINT RightForeArm
						{
							OFFSET -5.241900 -0.000000 -0.000000
							CHANNELS 3 Zrotation Yrotation Xrotation
							JOINT RightHand
							{
								OFFSET -3.444170 -0.000000 -0.000000
								CHANNELS 3 Zrotation Yrotation Xrotation
								JOINT RightFingerBase
								{
									OFFSET 0.000000 0.000000 0.000000
									CHANNELS 3 Zrotation Yrotation Xrotation
									JOINT RightHandIndex1
									{
										OFFSET -0.622530 -0.000000 -0.000000
										CHANNELS 3 Zrotation Yrotation Xrotation
										End Site
										{
											OFFSET 0.000000 0.000000 0.000000
										}
									}
								}
								JOINT RThumb
								{
									OFFSET 0.000000 0.000000 0.000000
									CHANNELS 3 Zrotation Yrotation Xrotation
									End Site
									{
										OFFSET 0.000000 0.000000 0.000000
									}
								}
							}
						}
					}
				}
			}
		}
	}
}
MOTION
Frames: 6
Frame Time: 0.008333
5.445998 17.481595 1.561470 -12.504560 30.392033 -12.911984 -3.113037 -0.404480 0.538190 -10.937047 12.270617 -21.197051 5.318356 14.315063 44.084583 0.795718 10.019248 -27.261910 1.310300 7.250800 20.460600 0.580242 0.866616 -1.941192 -3.795470 -0.860698 -65.129939 -4.496451 -13.186991 39.047938 -0.153120 -5.816664 7.745260 -0.485600 4.468500 -12.398700 1.203403 0.197054 15.768781 2.529560 1.276004 -2.307824 5.528876 0.317102 -2.253341 2.120926 -4.200600 -12.797741 1.541906 -5.740312 13.952322 -1.754600 -2.462800 4.614500 10.693342 -3.638807 3.019926 -97.564221 18.504043 7.727952 41.536007 -48.906231 -15.321784 -1.457271 1.539001 -25.362641 -1.074554 14.560490 -0.089000 -7.125000 0.000000 0.000000 -24.300400 41.190300 2.447200 -8.217119 3.931474 0.220358 89.676644 -3.173958 30.055995 -88.164895 58.941333 -55.728362 1.483653 -0.840028 7.204455 -22.573017 -18.526089 7.728900 7.125000 0.000000 0.000000 3.759400 -49.124800 -0.382900 
5.426054 17.456983 1.672966 -12.696310 31.726619 -13.046750 -3.095110 -0.424348 0.500609 -10.833851 11.506183 -21.216849 5.500195 14.492558 44.809483 0.755626 10.462575 -27.436467 1.095500 6.651200 18.686100 0.549389 0.869320 -1.969532 -3.298429 -1.759452 -67.368035 -5.489679 -14.324186 43.372163 -0.073962 -7.431973 7.361330 -0.425500 4.186500 -11.601900 0.827554 0.239283 15.641438 2.554055 1.275581 -2.315196 5.702793 0.327248 -2.237141 1.843849 -4.471326 -12.913840 1.782385 -6.109547 14.068270 -1.678800 -2.634100 4.672700 10.684316 -3.607331 2.919337 -95.983314 17.778233 5.614177 42.744817 -49.577245 -16.393104 -1.273219 1.823054 -29.217533 5.962266 13.330128 1.197100 -7.125000 0.000000 0.000000 -18.300600 40.437100 2.141000 -8.207555 3.913641 0.258991 90.438677 -3.416296 29.259440 -87.422426 58.986375 -55.076213 1.502113 -0.856218 6.730493 -24.170711 -17.954100 8.030600 7.125000 0.000000 0.000000 2.061000 -48.708800 -0.188600 
5.401761 17.432690 1.793055 -12.983803 33.306659 -13.194422 -3.067088 -0.447276 0.451004 -10.661145 10.781224 -21.377652 5.708952 14.688233 45.613123 0.751512 10.623283 -27.532290 0.898900 6.042600 16.908200 0.512054 0.870372 -1.990210 -3.475149 -2.383167 -69.240975 -6.648299 -15.440339 48.008264 -0.051191 -8.395215 7.602303 -0.356900 3.837900 -10.621000 0.426445 0.271332 15.419073 2.594586 1.254144 -2.353735 5.918708 0.330470 -2.233852 1.480433 -4.803725 -13.020998 2.041774 -6.550359 14.290792 -1.590100 -2.837600 4.765800 10.684037 -3.574114 2.802003 -94.073295 16.903196 3.627137 43.499619 -49.989647 -17.263359 -1.008672 2.072168 -31.391379 13.282709 10.583474 1.903700 -7.125000 0.000000 0.000000 -11.798300 38.166300 2.018900 -8.198403 3.901148 0.309640 91.208473 -3.865800 28.311881 -86.536880 59.029628 -54.313594 1.536472 -0.880648 7.604046 -26.353449 -17.545572 8.613100 7.125000 0.000000 0.000000 -0.191900 -48.578000 0.016900 
5.373860 17.408927 1.922267 -13.464012 35.082230 -13.460596 -3.019490 -0.466615 0.393194 -10.319556 10.187499 -21.663078 5.947077 14.900853 46.493106 0.793683 10.440534 -27.553311 0.726100 5.444500 15.180700 0.464323 0.867080 -2.002124 -4.027804 -2.901061 -70.748843 -7.940618 -16.479030 52.816042 -0.136911 -8.242681 8.712005 -0.345600 3.777200 -10.450800 0.070504 0.292834 15.158372 2.667438 1.227018 -2.414700 6.167115 0.334399 -2.256964 1.039470 -5.188934 -13.114041 2.317610 -7.052254 14.602705 -1.490000 -3.068700 4.888600 10.690604 -3.540622 2.672612 -91.843735 15.884705 1.803983 43.740398 -50.127023 -17.846224 -0.671139 2.212555 -31.539306 20.447944 6.824123 1.602500 -7.125000 0.000000 0.000000 -5.584400 34.651100 1.424400 -8.186638 3.893970 0.371323 91.986141 -4.528320 27.196072 -85.584041 59.066448 -53.507122 1.583784 -0.904698 9.589462 -29.024798 -17.467872 9.567200 7.125000 0.000000 0.000000 -2.909300 -48.927300 0.282000 
5.342777 17.385800 2.060496 -14.212750 36.974752 -13.869896 -2.943287 -0.483733 0.324225 -9.758257 9.799663 -22.138750 6.216634 15.129230 47.448280 0.879337 9.924706 -27.503962 0.577300 4.865500 13.525300 0.404708 0.858403 -2.003713 -4.746781 -3.344843 -71.933659 -9.323431 -17.396270 57.661938 -0.333059 -6.723230 10.609762 -0.410900 4.115100 -11.400600 -0.175193 0.315234 14.843078 2.770265 1.215060 -2.508212 6.395850 0.350641 -2.316617 0.555576 -5.620761 -13.186684 2.624391 -7.616190 14.991512 -1.380400 -3.325900 5.036600 10.699350 -3.507276 2.534221 -89.252522 14.757186 0.184885 43.508352 -49.997305 -18.093989 -0.309585 2.203689 -29.720493 27.276391 3.043439 0.347200 -7.125000 0.000000 0.000000 -0.058700 30.758000 0.020400 -8.170646 3.892741 0.441297 92.816421 -5.391818 25.901251 -84.661126 59.094788 -52.736796 1.639759 -0.920755 12.111799 -32.045373 -17.745905 10.934800 7.125000 0.000000 0.000000 -6.006700 -49.792900 0.712100 
5.309572 17.362992 2.206257 -15.315410 38.913849 -14.499270 -2.830745 -0.497580 0.243887 -8.938409 9.670995 -22.818429 6.516996 15.369777 48.468231 0.999484 9.140563 -27.411517 0.454100 4.323200 11.987600 0.332412 0.842428 -1.994812 -5.426113 -3.730516 -72.806205 -10.747899 -18.166705 62.425821 -0.575951 -3.760557 12.976870 -0.576800 4.863400 -13.519300 -0.253697 0.338413 14.493178 2.911816 1.226539 -2.630460 6.586376 0.383337 -2.413943 0.048684 -6.089372 -13.239662 2.962285 -8.233145 15.432121 -1.264400 -3.605100 5.202400 10.707855 -3.473664 2.393185 -86.314908 13.525546 -1.245008 42.917383 -49.637581 -18.012872 0.013351 2.068040 -26.443901 33.624125 0.160512 -1.355200 -7.125000 0.000000 0.000000 4.726200 27.464200 -2.020200 -8.148986 3.895639 0.515185 93.697346 -6.414127 24.468965 -83.902061 59.113343 -52.117368 1.700419 -0.914967 14.541866 -35.231011 -18.471242 12.805600 7.125000 0.000000 0.000000 -9.374800 -51.290000 1.463400 
